<svg width="32" height="32" viewBox="0 0 32 32" fill="none" xmlns="http://www.w3.org/2000/svg">
  <rect width="32" height="32" rx="6" fill="url(#gradient)"/>
  <!-- Building base -->
  <rect x="6" y="12" width="20" height="16" fill="white" rx="1"/>
  <!-- Building roof -->
  <rect x="10" y="8" width="12" height="4" fill="white" rx="1"/>
  <!-- Windows -->
  <rect x="8" y="14" width="3" height="3" fill="url(#gradient)" rx="0.5"/>
  <rect x="13" y="14" width="3" height="3" fill="url(#gradient)" rx="0.5"/>
  <rect x="18" y="14" width="3" height="3" fill="url(#gradient)" rx="0.5"/>
  <rect x="23" y="14" width="3" height="3" fill="url(#gradient)" rx="0.5"/>
  
  <rect x="8" y="19" width="3" height="3" fill="url(#gradient)" rx="0.5"/>
  <rect x="13" y="19" width="3" height="3" fill="url(#gradient)" rx="0.5"/>
  <rect x="18" y="19" width="3" height="3" fill="url(#gradient)" rx="0.5"/>
  <rect x="23" y="19" width="3" height="3" fill="url(#gradient)" rx="0.5"/>
  
  <rect x="8" y="24" width="3" height="3" fill="url(#gradient)" rx="0.5"/>
  <rect x="13" y="24" width="3" height="3" fill="url(#gradient)" rx="0.5"/>
  <rect x="18" y="24" width="3" height="3" fill="url(#gradient)" rx="0.5"/>
  <rect x="23" y="24" width="3" height="3" fill="url(#gradient)" rx="0.5"/>
  
  <defs>
    <linearGradient id="gradient" x1="0%" y1="0%" x2="100%" y2="100%">
      <stop offset="0%" style="stop-color:#2563eb"/>
      <stop offset="100%" style="stop-color:#4f46e5"/>
    </linearGradient>
  </defs>
</svg>